<svg width="282" height="282" viewBox="0 0 282 282" fill="none" xmlns="http://www.w3.org/2000/svg">
<g filter="url(#filter0_d_1:119)">
<rect x="6" y="2" width="270" height="270" rx="29" fill="#2A2A2A"/>
</g>
<path d="M94.56 213H101.592C104.496 213 106.344 211.32 106.344 208.536C106.344 206.664 105.12 205.392 103.368 204.936C104.928 204.312 105.984 202.92 105.984 201.24C105.984 198.672 104.016 196.92 101.232 196.92H94.56V213ZM101.232 197.976C103.368 197.976 104.856 199.32 104.856 201.24C104.856 203.04 103.176 204.552 101.232 204.552H95.712V197.976H101.232ZM101.592 205.56C103.608 205.56 105.216 206.736 105.216 208.536C105.216 210.696 103.872 211.944 101.592 211.944H95.712V205.56H101.592ZM108.47 207.048C108.47 210.456 110.942 213.168 114.278 213.168C116.582 213.168 118.766 211.872 119.51 210.048V213H120.638V201H119.51V203.76C118.478 201.84 116.798 200.88 114.302 200.88C110.965 200.88 108.47 203.592 108.47 207.048ZM114.638 212.088C111.686 212.088 109.622 209.928 109.622 207.048C109.622 204.6 111.278 201.96 114.662 201.96C117.398 201.96 119.51 204.048 119.51 206.016V208.104C119.51 210.096 117.062 212.088 114.638 212.088ZM129.575 213.168C131.303 213.168 132.959 212.424 134.111 211.2L133.319 210.408C132.287 211.488 131.015 212.064 129.575 212.064C126.791 212.064 124.559 209.808 124.559 207.048C124.559 204.264 126.815 201.984 129.575 201.984C130.991 201.984 132.407 202.632 133.295 203.64L134.087 202.848C132.935 201.6 131.303 200.88 129.575 200.88C126.191 200.88 123.407 203.664 123.407 207.048C123.407 210.408 126.167 213.168 129.575 213.168ZM137.737 207.144L144.577 213H146.089L139.009 206.952L145.441 201H144.001L137.737 206.736V196.92H136.585V213H137.737V207.144ZM153.054 213.168C155.262 213.168 157.182 211.992 158.238 210.12L157.158 209.832C156.198 211.344 154.806 212.088 153.054 212.088C150.39 212.088 148.422 210.096 148.23 207.456H159.006C159.006 207.288 159.03 207.216 159.03 207C159.03 203.568 156.39 200.88 153.054 200.88C149.694 200.88 147.078 203.616 147.078 207.048C147.078 210.456 149.694 213.168 153.054 213.168ZM148.23 206.568C148.422 203.904 150.462 201.912 153.054 201.912C155.646 201.912 157.662 203.856 157.854 206.568H148.23ZM163.292 205.248C163.292 203.76 164.972 202.104 167.18 201.96C169.676 201.816 171.524 203.808 171.524 207.048V213H172.676V207.048C172.676 203.4 170.54 200.88 167.756 200.88C165.62 200.88 164.228 201.864 163.292 203.328V201H162.164V213H163.292V205.248ZM175.175 207.048C175.175 210.456 177.647 213.168 180.983 213.168C183.311 213.168 185.471 211.872 186.215 210.048V213H187.343V196.92H186.215V203.76C185.183 201.84 183.479 200.88 180.983 200.88C177.647 200.88 175.175 203.592 175.175 207.048ZM181.343 212.088C178.415 212.088 176.327 209.928 176.327 207.048C176.327 204.6 177.959 201.96 181.343 201.96C184.079 201.96 186.215 204.048 186.215 206.016V208.104C186.215 210.096 183.791 212.088 181.343 212.088Z" fill="#E4E4E4"/>
<path d="M126.047 104.441L129.953 99.5594L117.378 89.5L129.953 79.4406L126.047 74.5594L110.422 87.0594C110.056 87.3521 109.76 87.7235 109.557 88.146C109.354 88.5684 109.249 89.0312 109.249 89.5C109.249 89.9687 109.354 90.4315 109.557 90.854C109.76 91.2765 110.056 91.6478 110.422 91.9406L126.047 104.441ZM154.953 74.5594L151.047 79.4406L163.622 89.5L151.047 99.5594L154.953 104.441L170.578 91.9406C170.944 91.6478 171.24 91.2765 171.443 90.854C171.646 90.4315 171.751 89.9687 171.751 89.5C171.751 89.0312 171.646 88.5684 171.443 88.146C171.24 87.7235 170.944 87.3521 170.578 87.0594L154.953 74.5594ZM149.8 62.05L137.3 118.3L131.197 116.944L143.697 60.6937L149.8 62.05Z" fill="#00C4F0"/>
<defs>
<filter id="filter0_d_1:119" x="0" y="0" width="282" height="282" filterUnits="userSpaceOnUse" color-interpolation-filters="sRGB">
<feFlood flood-opacity="0" result="BackgroundImageFix"/>
<feColorMatrix in="SourceAlpha" type="matrix" values="0 0 0 0 0 0 0 0 0 0 0 0 0 0 0 0 0 0 127 0" result="hardAlpha"/>
<feOffset dy="4"/>
<feGaussianBlur stdDeviation="3"/>
<feComposite in2="hardAlpha" operator="out"/>
<feColorMatrix type="matrix" values="0 0 0 0 0 0 0 0 0 0 0 0 0 0 0 0 0 0 0.47 0"/>
<feBlend mode="normal" in2="BackgroundImageFix" result="effect1_dropShadow_1:119"/>
<feBlend mode="normal" in="SourceGraphic" in2="effect1_dropShadow_1:119" result="shape"/>
</filter>
</defs>
</svg>
