<svg width="104" height="170" viewBox="0 0 104 170" fill="none" xmlns="http://www.w3.org/2000/svg">
<rect x="6" y="2" width="270" height="270" rx="29" fill="#2A2A2A"/>
<g id="Frontend" filter="url(#filter0_d_1:113)">
<g id="Group 7">
<path id="Frontend_2" d="M1.488 161H2.616V153.632H11.712V152.504H2.616V146.048H12.024V144.92H1.488V161ZM14.7542 161H15.9062V153.056C15.9062 151.784 17.3462 150.104 19.4342 149.96C20.4422 149.888 21.1382 150.008 22.0742 150.344L22.2662 149.144C21.6182 148.976 20.5862 148.808 19.6982 148.88C17.6342 149.048 16.4342 150.032 15.9062 151.352V149H14.7542V161ZM29.6108 161.168C32.9948 161.168 35.7787 158.432 35.7787 155.048C35.7787 151.664 32.9948 148.88 29.6108 148.88C26.2268 148.88 23.4428 151.664 23.4428 155.048C23.4428 158.432 26.2268 161.168 29.6108 161.168ZM29.6108 149.912C32.3948 149.912 34.6508 152.264 34.6508 155.048C34.6508 157.904 32.3228 160.112 29.6108 160.112C26.8508 160.112 24.5948 157.832 24.5948 155.048C24.5948 152.168 26.8988 149.912 29.6108 149.912ZM40.0815 153.248C40.0815 151.76 41.7615 150.104 43.9695 149.96C46.4655 149.816 48.3135 151.808 48.3135 155.048V161H49.4655V155.048C49.4655 151.4 47.3295 148.88 44.5455 148.88C42.4095 148.88 41.0175 149.864 40.0815 151.328V149H38.9535V161H40.0815V153.248ZM54.5085 146.528V149.288H51.9885L51.7725 150.368H54.5085V157.712C54.5085 160.016 55.3965 161.12 57.6285 161.12C58.3965 161.12 59.2845 160.976 60.1005 160.688L59.9325 159.56C59.5005 159.752 58.8765 159.896 58.0845 159.944C56.3325 160.04 55.6365 159.488 55.6365 157.112V150.368H59.6685V149.288H55.6365V146.528H54.5085ZM67.9059 161.168C70.1139 161.168 72.0339 159.992 73.0899 158.12L72.0099 157.832C71.0499 159.344 69.6579 160.088 67.9059 160.088C65.2419 160.088 63.2739 158.096 63.0819 155.456H73.8579C73.8579 155.288 73.8819 155.216 73.8819 155C73.8819 151.568 71.2419 148.88 67.9059 148.88C64.5459 148.88 61.9299 151.616 61.9299 155.048C61.9299 158.456 64.5459 161.168 67.9059 161.168ZM63.0819 154.568C63.2739 151.904 65.3139 149.912 67.9059 149.912C70.4979 149.912 72.5139 151.856 72.7059 154.568H63.0819ZM78.144 153.248C78.144 151.76 79.824 150.104 82.032 149.96C84.528 149.816 86.376 151.808 86.376 155.048V161H87.528V155.048C87.528 151.4 85.392 148.88 82.608 148.88C80.472 148.88 79.08 149.864 78.144 151.328V149H77.016V161H78.144V153.248ZM90.027 155.048C90.027 158.456 92.499 161.168 95.835 161.168C98.163 161.168 100.323 159.872 101.067 158.048V161H102.195V144.92H101.067V151.76C100.035 149.84 98.331 148.88 95.835 148.88C92.499 148.88 90.027 151.592 90.027 155.048ZM96.195 160.088C93.267 160.088 91.179 157.928 91.179 155.048C91.179 152.6 92.811 149.96 96.195 149.96C98.931 149.96 101.067 152.048 101.067 154.016V156.104C101.067 158.096 98.643 160.088 96.195 160.088Z" fill="#E4E4E4"/>
<g id="bi:display">
<g id="Group">
<path id="Vector" d="M14 18.75C14 18.75 14 9.375 23.375 9.375H79.625C79.625 9.375 89 9.375 89 18.75V46.875C89 46.875 89 56.25 79.625 56.25H60.875C60.875 59.3766 61.2641 61.7203 62.0469 63.2812H65.5625C66.1841 63.2812 66.7802 63.5282 67.2198 63.9677C67.6593 64.4073 67.9062 65.0034 67.9062 65.625C67.9062 66.2466 67.6593 66.8427 67.2198 67.2823C66.7802 67.7218 66.1841 67.9688 65.5625 67.9688H37.4375C36.8159 67.9688 36.2198 67.7218 35.7802 67.2823C35.3407 66.8427 35.0938 66.2466 35.0938 65.625C35.0938 65.0034 35.3407 64.4073 35.7802 63.9677C36.2198 63.5282 36.8159 63.2812 37.4375 63.2812H40.9531C41.7359 61.7203 42.125 59.3766 42.125 56.25H23.375C23.375 56.25 14 56.25 14 46.875V18.75ZM20.5531 14.7422C20.0382 15.1007 19.6274 15.5891 19.3625 16.1578C18.9629 16.9834 18.7334 17.8808 18.6875 18.7969V46.875C18.6875 48.3984 19.0531 49.2281 19.3672 49.6969C19.6953 50.1891 20.1641 50.5781 20.7828 50.8875C21.5728 51.2702 22.4289 51.4977 23.3047 51.5578L23.4219 51.5625H79.625C81.1484 51.5625 81.9781 51.1969 82.4469 50.8828C82.9618 50.5243 83.3726 50.0359 83.6375 49.4672C84.0202 48.6772 84.2477 47.8211 84.3078 46.9453L84.3125 46.8281V18.75C84.3125 17.2266 83.9469 16.3969 83.6328 15.9281C83.2745 15.4131 82.786 15.0022 82.2172 14.7375C81.3916 14.3379 80.4942 14.1084 79.5781 14.0625H23.375C21.8516 14.0625 21.0219 14.4281 20.5531 14.7422V14.7422Z" fill="#00C4F0"/>
</g>
</g>
</g>
</g>
<defs>
<filter id="filter0_d_1:113" x="-2.512" y="0" width="108.707" height="169.168" filterUnits="userSpaceOnUse" color-interpolation-filters="sRGB">
<feFlood flood-opacity="0" result="BackgroundImageFix"/>
<feColorMatrix in="SourceAlpha" type="matrix" values="0 0 0 0 0 0 0 0 0 0 0 0 0 0 0 0 0 0 127 0" result="hardAlpha"/>
<feOffset dy="4"/>
<feGaussianBlur stdDeviation="2"/>
<feComposite in2="hardAlpha" operator="out"/>
<feColorMatrix type="matrix" values="0 0 0 0 0 0 0 0 0 0 0 0 0 0 0 0 0 0 0.25 0"/>
<feBlend mode="normal" in2="BackgroundImageFix" result="effect1_dropShadow_1:113"/>
<feBlend mode="normal" in="SourceGraphic" in2="effect1_dropShadow_1:113" result="shape"/>
</filter>
</defs>
</svg>
