<svg width="282" height="282" viewBox="0 0 282 282" fill="none" xmlns="http://www.w3.org/2000/svg">
<g filter="url(#filter0_d_1:98)">
<rect x="6" y="2" width="270" height="270" rx="29" fill="#2A2A2A"/>
</g>
<path d="M80.168 213V196.92H79.04V213H80.168ZM89.5745 213.168C91.3025 213.168 92.9585 212.424 94.1105 211.2L93.3185 210.408C92.2865 211.488 91.0145 212.064 89.5745 212.064C86.7905 212.064 84.5585 209.808 84.5585 207.048C84.5585 204.264 86.8145 201.984 89.5745 201.984C90.9905 201.984 92.4065 202.632 93.2945 203.64L94.0865 202.848C92.9345 201.6 91.3025 200.88 89.5745 200.88C86.1905 200.88 83.4065 203.664 83.4065 207.048C83.4065 210.408 86.1665 213.168 89.5745 213.168ZM102.181 213.168C105.565 213.168 108.349 210.432 108.349 207.048C108.349 203.664 105.565 200.88 102.181 200.88C98.7971 200.88 96.0131 203.664 96.0131 207.048C96.0131 210.432 98.7971 213.168 102.181 213.168ZM102.181 201.912C104.965 201.912 107.221 204.264 107.221 207.048C107.221 209.904 104.893 212.112 102.181 212.112C99.4211 212.112 97.1651 209.832 97.1651 207.048C97.1651 204.168 99.4691 201.912 102.181 201.912ZM112.652 205.248C112.652 203.76 114.332 202.104 116.54 201.96C119.036 201.816 120.884 203.808 120.884 207.048V213H122.036V207.048C122.036 203.4 119.9 200.88 117.116 200.88C114.98 200.88 113.588 201.864 112.652 203.328V201H111.524V213H112.652V205.248ZM131.063 213H137.111C141.887 213 144.911 209.928 144.911 205.032C144.911 199.992 141.959 196.92 137.111 196.92H131.063V213ZM137.111 197.976C141.239 197.976 143.783 200.664 143.783 205.008C143.783 209.256 141.167 211.944 137.111 211.944H132.215V197.976H137.111ZM153.414 213.168C155.622 213.168 157.542 211.992 158.598 210.12L157.518 209.832C156.558 211.344 155.166 212.088 153.414 212.088C150.75 212.088 148.782 210.096 148.59 207.456H159.366C159.366 207.288 159.39 207.216 159.39 207C159.39 203.568 156.75 200.88 153.414 200.88C150.054 200.88 147.438 203.616 147.438 207.048C147.438 210.456 150.054 213.168 153.414 213.168ZM148.59 206.568C148.782 203.904 150.822 201.912 153.414 201.912C156.006 201.912 158.022 203.856 158.214 206.568H148.59ZM161.359 209.496C161.839 211.68 163.519 213.168 165.847 213.168C168.271 213.168 170.095 211.824 170.095 210.12C170.095 208.8 169.351 207.96 167.215 206.88C166.735 206.64 166.231 206.424 165.511 206.112C163.495 205.2 163.039 204.768 163.039 203.784C163.039 202.656 164.263 201.816 165.895 201.864C167.599 201.912 168.655 202.824 168.823 204.384L169.855 204.24C169.711 202.152 168.103 200.808 165.799 200.856C163.519 200.88 161.887 202.08 161.887 203.736C161.887 205.128 162.607 205.944 164.599 206.808C165.079 207 165.847 207.336 166.519 207.648C168.319 208.536 168.895 209.136 168.895 210.12C168.895 211.224 167.575 212.136 165.847 212.136C164.191 212.136 162.871 210.96 162.487 209.376L161.359 209.496ZM172.495 197.4C172.495 197.832 172.783 198.096 173.191 198.096C173.623 198.096 173.887 197.832 173.887 197.4C173.887 196.968 173.623 196.704 173.191 196.704C172.783 196.704 172.495 196.968 172.495 197.4ZM173.743 213V201H172.591V213H173.743ZM187.679 204C186.719 201.864 185.015 200.88 182.327 200.88C178.967 200.88 176.663 203.544 176.663 207.048C176.663 210.528 179.039 213.168 182.327 213.168C184.919 213.168 187.055 211.824 187.679 209.856V213C187.679 216.096 185.663 217.776 182.207 217.56C180.359 217.44 178.919 216.96 177.527 216.048L177.359 217.2C178.751 218.112 180.263 218.544 182.207 218.664C186.335 218.928 188.831 216.768 188.831 213V201H187.679V204ZM187.679 207.96C187.679 210.072 185.495 211.968 182.879 212.088C179.951 212.208 177.791 210.096 177.791 207.048C177.791 203.928 179.951 201.792 182.927 201.96C185.399 202.08 186.983 203.472 187.679 205.752V207.96ZM193.605 205.248C193.605 203.76 195.285 202.104 197.493 201.96C199.989 201.816 201.837 203.808 201.837 207.048V213H202.989V207.048C202.989 203.4 200.853 200.88 198.069 200.88C195.933 200.88 194.541 201.864 193.605 203.328V201H192.477V213H193.605V205.248Z" fill="#E4E4E4"/>
<g clip-path="url(#clip0_1:98)">
<path d="M122.243 69H177.063V85.3094H122.243V69Z" fill="#00C4F0"/>
<path d="M122.243 98.3438H177.063V114.653H122.243V98.3438Z" fill="#00C4F0"/>
<path d="M122.243 127.691H177.063V144H122.243V127.691Z" fill="#00C4F0"/>
<path d="M103 69H116.979V85.3094H103V69Z" fill="#00C4F0"/>
<path d="M103 98.3438H116.979V114.653H103V98.3438Z" fill="#00C4F0"/>
<path d="M103 127.691H116.979V144H103V127.691Z" fill="#00C4F0"/>
</g>
<defs>
<filter id="filter0_d_1:98" x="0" y="0" width="282" height="282" filterUnits="userSpaceOnUse" color-interpolation-filters="sRGB">
<feFlood flood-opacity="0" result="BackgroundImageFix"/>
<feColorMatrix in="SourceAlpha" type="matrix" values="0 0 0 0 0 0 0 0 0 0 0 0 0 0 0 0 0 0 127 0" result="hardAlpha"/>
<feOffset dy="4"/>
<feGaussianBlur stdDeviation="3"/>
<feComposite in2="hardAlpha" operator="out"/>
<feColorMatrix type="matrix" values="0 0 0 0 0 0 0 0 0 0 0 0 0 0 0 0 0 0 0.47 0"/>
<feBlend mode="normal" in2="BackgroundImageFix" result="effect1_dropShadow_1:98"/>
<feBlend mode="normal" in="SourceGraphic" in2="effect1_dropShadow_1:98" result="shape"/>
</filter>
<clipPath id="clip0_1:98">
<rect width="75" height="75" fill="white" transform="translate(103 69)"/>
</clipPath>
</defs>
</svg>
