<svg width="282" height="282" viewBox="0 0 282 282" fill="none" xmlns="http://www.w3.org/2000/svg">
<g filter="url(#filter0_d_1:92)">
<rect x="6" y="2" width="270" height="270" rx="29" fill="#2A2A2A"/>
</g>
<path d="M73.752 213H84.288V211.848H74.88V196.92H73.752V213ZM92.1889 213.168C95.5729 213.168 98.3569 210.432 98.3569 207.048C98.3569 203.664 95.5729 200.88 92.1889 200.88C88.8049 200.88 86.0209 203.664 86.0209 207.048C86.0209 210.432 88.8049 213.168 92.1889 213.168ZM92.1889 201.912C94.9729 201.912 97.2289 204.264 97.2289 207.048C97.2289 209.904 94.9009 212.112 92.1889 212.112C89.4289 212.112 87.1729 209.832 87.1729 207.048C87.1729 204.168 89.4769 201.912 92.1889 201.912ZM111.804 204C110.844 201.864 109.14 200.88 106.452 200.88C103.092 200.88 100.788 203.544 100.788 207.048C100.788 210.528 103.164 213.168 106.452 213.168C109.044 213.168 111.18 211.824 111.804 209.856V213C111.804 216.096 109.788 217.776 106.332 217.56C104.484 217.44 103.044 216.96 101.652 216.048L101.484 217.2C102.876 218.112 104.388 218.544 106.332 218.664C110.46 218.928 112.956 216.768 112.956 213V201H111.804V204ZM111.804 207.96C111.804 210.072 109.62 211.968 107.004 212.088C104.076 212.208 101.916 210.096 101.916 207.048C101.916 203.928 104.076 201.792 107.052 201.96C109.524 202.08 111.108 203.472 111.804 205.752V207.96ZM121.978 213.168C125.362 213.168 128.146 210.432 128.146 207.048C128.146 203.664 125.362 200.88 121.978 200.88C118.594 200.88 115.81 203.664 115.81 207.048C115.81 210.432 118.594 213.168 121.978 213.168ZM121.978 201.912C124.762 201.912 127.018 204.264 127.018 207.048C127.018 209.904 124.69 212.112 121.978 212.112C119.218 212.112 116.962 209.832 116.962 207.048C116.962 204.168 119.266 201.912 121.978 201.912ZM136.985 213H143.033C147.809 213 150.833 209.928 150.833 205.032C150.833 199.992 147.881 196.92 143.033 196.92H136.985V213ZM143.033 197.976C147.161 197.976 149.705 200.664 149.705 205.008C149.705 209.256 147.089 211.944 143.033 211.944H138.137V197.976H143.033ZM159.336 213.168C161.544 213.168 163.464 211.992 164.52 210.12L163.44 209.832C162.48 211.344 161.088 212.088 159.336 212.088C156.672 212.088 154.704 210.096 154.512 207.456H165.288C165.288 207.288 165.312 207.216 165.312 207C165.312 203.568 162.672 200.88 159.336 200.88C155.976 200.88 153.36 203.616 153.36 207.048C153.36 210.456 155.976 213.168 159.336 213.168ZM154.512 206.568C154.704 203.904 156.744 201.912 159.336 201.912C161.928 201.912 163.944 203.856 164.136 206.568H154.512ZM167.281 209.496C167.761 211.68 169.441 213.168 171.769 213.168C174.193 213.168 176.017 211.824 176.017 210.12C176.017 208.8 175.273 207.96 173.137 206.88C172.657 206.64 172.153 206.424 171.433 206.112C169.417 205.2 168.961 204.768 168.961 203.784C168.961 202.656 170.185 201.816 171.817 201.864C173.521 201.912 174.577 202.824 174.745 204.384L175.777 204.24C175.633 202.152 174.025 200.808 171.721 200.856C169.441 200.88 167.809 202.08 167.809 203.736C167.809 205.128 168.529 205.944 170.521 206.808C171.001 207 171.769 207.336 172.441 207.648C174.241 208.536 174.817 209.136 174.817 210.12C174.817 211.224 173.497 212.136 171.769 212.136C170.113 212.136 168.793 210.96 168.409 209.376L167.281 209.496ZM178.417 197.4C178.417 197.832 178.705 198.096 179.113 198.096C179.545 198.096 179.809 197.832 179.809 197.4C179.809 196.968 179.545 196.704 179.113 196.704C178.705 196.704 178.417 196.968 178.417 197.4ZM179.665 213V201H178.513V213H179.665ZM193.601 204C192.641 201.864 190.937 200.88 188.249 200.88C184.889 200.88 182.585 203.544 182.585 207.048C182.585 210.528 184.961 213.168 188.249 213.168C190.841 213.168 192.977 211.824 193.601 209.856V213C193.601 216.096 191.585 217.776 188.129 217.56C186.281 217.44 184.84 216.96 183.449 216.048L183.281 217.2C184.673 218.112 186.185 218.544 188.129 218.664C192.257 218.928 194.753 216.768 194.753 213V201H193.601V204ZM193.601 207.96C193.601 210.072 191.417 211.968 188.801 212.088C185.873 212.208 183.713 210.096 183.713 207.048C183.713 203.928 185.873 201.792 188.849 201.96C191.321 202.08 192.905 203.472 193.601 205.752V207.96ZM199.527 205.248C199.527 203.76 201.207 202.104 203.415 201.96C205.911 201.816 207.759 203.808 207.759 207.048V213H208.911V207.048C208.911 203.4 206.775 200.88 203.991 200.88C201.855 200.88 200.463 201.864 199.527 203.328V201H198.399V213H199.527V205.248Z" fill="#E4E4E4"/>
<path d="M113.375 106.5H141.5V134.625H113.375V106.5Z" fill="#00C4F0"/>
<path d="M141.5 78.375H169.625V106.5H141.5V78.375Z" fill="#00C4F0"/>
<defs>
<filter id="filter0_d_1:92" x="0" y="0" width="282" height="282" filterUnits="userSpaceOnUse" color-interpolation-filters="sRGB">
<feFlood flood-opacity="0" result="BackgroundImageFix"/>
<feColorMatrix in="SourceAlpha" type="matrix" values="0 0 0 0 0 0 0 0 0 0 0 0 0 0 0 0 0 0 127 0" result="hardAlpha"/>
<feOffset dy="4"/>
<feGaussianBlur stdDeviation="3"/>
<feComposite in2="hardAlpha" operator="out"/>
<feColorMatrix type="matrix" values="0 0 0 0 0 0 0 0 0 0 0 0 0 0 0 0 0 0 0.47 0"/>
<feBlend mode="normal" in2="BackgroundImageFix" result="effect1_dropShadow_1:92"/>
<feBlend mode="normal" in="SourceGraphic" in2="effect1_dropShadow_1:92" result="shape"/>
</filter>
</defs>
</svg>
