<svg width="282" height="282" viewBox="0 0 282 282" fill="none" xmlns="http://www.w3.org/2000/svg">
<g filter="url(#filter0_d_1:108)">
<rect x="6" y="2" width="270" height="270" rx="29" fill="#2A2A2A"/>
</g>
<path d="M106 198.48L112.36 207.504H112.744L119.008 198.528V213H120.136V196.92H118.768L112.552 205.728L106.264 196.92H104.848V213H106V198.48ZM129.376 213.168C132.76 213.168 135.544 210.432 135.544 207.048C135.544 203.664 132.76 200.88 129.376 200.88C125.992 200.88 123.208 203.664 123.208 207.048C123.208 210.432 125.992 213.168 129.376 213.168ZM129.376 201.912C132.16 201.912 134.416 204.264 134.416 207.048C134.416 209.904 132.088 212.112 129.376 212.112C126.616 212.112 124.36 209.832 124.36 207.048C124.36 204.168 126.664 201.912 129.376 201.912ZM140.141 198.528V201.288H137.621L137.405 202.368H140.141V209.712C140.141 212.016 141.029 213.12 143.261 213.12C144.029 213.12 144.917 212.976 145.733 212.688L145.565 211.56C145.133 211.752 144.509 211.896 143.717 211.944C141.965 212.04 141.269 211.488 141.269 209.112V202.368H145.301V201.288H141.269V198.528H140.141ZM148.058 197.4C148.058 197.832 148.346 198.096 148.754 198.096C149.186 198.096 149.45 197.832 149.45 197.4C149.45 196.968 149.186 196.704 148.754 196.704C148.346 196.704 148.058 196.968 148.058 197.4ZM149.306 213V201H148.154V213H149.306ZM158.345 213.168C161.729 213.168 164.513 210.432 164.513 207.048C164.513 203.664 161.729 200.88 158.345 200.88C154.961 200.88 152.177 203.664 152.177 207.048C152.177 210.432 154.961 213.168 158.345 213.168ZM158.345 201.912C161.129 201.912 163.385 204.264 163.385 207.048C163.385 209.904 161.057 212.112 158.345 212.112C155.585 212.112 153.329 209.832 153.329 207.048C153.329 204.168 155.633 201.912 158.345 201.912ZM168.816 205.248C168.816 203.76 170.496 202.104 172.704 201.96C175.2 201.816 177.048 203.808 177.048 207.048V213H178.2V207.048C178.2 203.4 176.064 200.88 173.28 200.88C171.144 200.88 169.752 201.864 168.816 203.328V201H167.688V213H168.816V205.248Z" fill="#E4E4E4"/>
<path d="M145.75 58.25H114.5C112.842 58.25 111.253 58.9085 110.081 60.0806C108.908 61.2527 108.25 62.8424 108.25 64.5V95.75H114.5V64.5H145.75V58.25ZM158.25 70.75H127C125.342 70.75 123.753 71.4085 122.581 72.5806C121.408 73.7527 120.75 75.3424 120.75 77V108.25H127V77H158.25V70.75ZM164.5 83.25H139.5C137.842 83.25 136.253 83.9085 135.081 85.0806C133.908 86.2527 133.25 87.8424 133.25 89.5V114.5C133.25 116.158 133.908 117.747 135.081 118.919C136.253 120.092 137.842 120.75 139.5 120.75H164.5C167.938 120.75 170.75 117.938 170.75 114.5V89.5C170.75 86.0625 167.938 83.25 164.5 83.25Z" fill="#00C4F0"/>
<defs>
<filter id="filter0_d_1:108" x="0" y="0" width="282" height="282" filterUnits="userSpaceOnUse" color-interpolation-filters="sRGB">
<feFlood flood-opacity="0" result="BackgroundImageFix"/>
<feColorMatrix in="SourceAlpha" type="matrix" values="0 0 0 0 0 0 0 0 0 0 0 0 0 0 0 0 0 0 127 0" result="hardAlpha"/>
<feOffset dy="4"/>
<feGaussianBlur stdDeviation="3"/>
<feComposite in2="hardAlpha" operator="out"/>
<feColorMatrix type="matrix" values="0 0 0 0 0 0 0 0 0 0 0 0 0 0 0 0 0 0 0.47 0"/>
<feBlend mode="normal" in2="BackgroundImageFix" result="effect1_dropShadow_1:108"/>
<feBlend mode="normal" in="SourceGraphic" in2="effect1_dropShadow_1:108" result="shape"/>
</filter>
</defs>
</svg>
