<svg width="282" height="282" viewBox="0 0 282 282" fill="none" xmlns="http://www.w3.org/2000/svg">
<g filter="url(#filter0_d_1:85)">
<rect x="6" y="2" width="270" height="270" rx="29" fill="#2A2A2A"/>
</g>
<path d="M67.656 213H68.808V207.408H73.128C77.064 207.408 78.984 205.44 78.984 202.128C78.984 198.864 76.92 196.92 73.128 196.92H67.656V213ZM73.128 198C76.176 198 77.856 199.512 77.856 202.104C77.856 204.84 76.272 206.328 73.128 206.328H68.808V198H73.128ZM81.3636 213H82.5156V205.056C82.5156 203.784 83.9556 202.104 86.0436 201.96C87.0516 201.888 87.7476 202.008 88.6836 202.344L88.8756 201.144C88.2276 200.976 87.1956 200.808 86.3076 200.88C84.2436 201.048 83.0436 202.032 82.5156 203.352V201H81.3636V213ZM96.2201 213.168C99.6041 213.168 102.388 210.432 102.388 207.048C102.388 203.664 99.6041 200.88 96.2201 200.88C92.8361 200.88 90.0521 203.664 90.0521 207.048C90.0521 210.432 92.8361 213.168 96.2201 213.168ZM96.2201 201.912C99.0041 201.912 101.26 204.264 101.26 207.048C101.26 209.904 98.9321 212.112 96.2201 212.112C93.4601 212.112 91.2041 209.832 91.2041 207.048C91.2041 204.168 93.5081 201.912 96.2201 201.912ZM104.699 207.048C104.699 210.456 107.171 213.168 110.507 213.168C112.835 213.168 114.995 211.872 115.739 210.048V213H116.867V196.92H115.739V203.76C114.707 201.84 113.003 200.88 110.507 200.88C107.171 200.88 104.699 203.592 104.699 207.048ZM110.867 212.088C107.939 212.088 105.851 209.928 105.851 207.048C105.851 204.6 107.483 201.96 110.867 201.96C113.603 201.96 115.739 204.048 115.739 206.016V208.104C115.739 210.096 113.315 212.088 110.867 212.088ZM128.945 208.728C128.945 210.24 127.313 211.872 125.105 212.016C122.609 212.184 120.761 210.192 120.761 206.952V201H119.609V206.952C119.609 210.6 121.745 213.12 124.529 213.12C126.665 213.12 128.033 212.136 128.945 210.672V213H130.097V201H128.945V208.728ZM139.137 213.168C140.865 213.168 142.521 212.424 143.673 211.2L142.881 210.408C141.849 211.488 140.577 212.064 139.137 212.064C136.353 212.064 134.121 209.808 134.121 207.048C134.121 204.264 136.377 201.984 139.137 201.984C140.553 201.984 141.969 202.632 142.857 203.64L143.649 202.848C142.497 201.6 140.865 200.88 139.137 200.88C135.753 200.88 132.969 203.664 132.969 207.048C132.969 210.408 135.729 213.168 139.137 213.168ZM148.235 198.528V201.288H145.715L145.499 202.368H148.235V209.712C148.235 212.016 149.123 213.12 151.355 213.12C152.123 213.12 153.011 212.976 153.827 212.688L153.659 211.56C153.227 211.752 152.603 211.896 151.811 211.944C150.059 212.04 149.363 211.488 149.363 209.112V202.368H153.395V201.288H149.363V198.528H148.235ZM162.555 213H168.603C173.379 213 176.403 209.928 176.403 205.032C176.403 199.992 173.451 196.92 168.603 196.92H162.555V213ZM168.603 197.976C172.731 197.976 175.275 200.664 175.275 205.008C175.275 209.256 172.659 211.944 168.603 211.944H163.707V197.976H168.603ZM184.906 213.168C187.114 213.168 189.034 211.992 190.09 210.12L189.01 209.832C188.05 211.344 186.658 212.088 184.906 212.088C182.242 212.088 180.274 210.096 180.082 207.456H190.858C190.858 207.288 190.882 207.216 190.882 207C190.882 203.568 188.242 200.88 184.906 200.88C181.546 200.88 178.93 203.616 178.93 207.048C178.93 210.456 181.546 213.168 184.906 213.168ZM180.082 206.568C180.274 203.904 182.314 201.912 184.906 201.912C187.498 201.912 189.514 203.856 189.706 206.568H180.082ZM192.851 209.496C193.331 211.68 195.011 213.168 197.339 213.168C199.763 213.168 201.587 211.824 201.587 210.12C201.587 208.8 200.843 207.96 198.707 206.88C198.227 206.64 197.723 206.424 197.003 206.112C194.987 205.2 194.531 204.768 194.531 203.784C194.531 202.656 195.755 201.816 197.387 201.864C199.091 201.912 200.147 202.824 200.315 204.384L201.347 204.24C201.203 202.152 199.595 200.808 197.291 200.856C195.011 200.88 193.379 202.08 193.379 203.736C193.379 205.128 194.099 205.944 196.091 206.808C196.571 207 197.339 207.336 198.011 207.648C199.811 208.536 200.387 209.136 200.387 210.12C200.387 211.224 199.067 212.136 197.339 212.136C195.683 212.136 194.363 210.96 193.979 209.376L192.851 209.496ZM203.987 197.4C203.987 197.832 204.275 198.096 204.683 198.096C205.115 198.096 205.379 197.832 205.379 197.4C205.379 196.968 205.115 196.704 204.683 196.704C204.275 196.704 203.987 196.968 203.987 197.4ZM205.235 213V201H204.083V213H205.235ZM219.171 204C218.211 201.864 216.507 200.88 213.819 200.88C210.459 200.88 208.155 203.544 208.155 207.048C208.155 210.528 210.531 213.168 213.819 213.168C216.411 213.168 218.547 211.824 219.171 209.856V213C219.171 216.096 217.155 217.776 213.699 217.56C211.851 217.44 210.411 216.96 209.019 216.048L208.851 217.2C210.243 218.112 211.755 218.544 213.699 218.664C217.827 218.928 220.323 216.768 220.323 213V201H219.171V204ZM219.171 207.96C219.171 210.072 216.987 211.968 214.371 212.088C211.443 212.208 209.283 210.096 209.283 207.048C209.283 203.928 211.443 201.792 214.419 201.96C216.891 202.08 218.475 203.472 219.171 205.752V207.96ZM225.097 205.248C225.097 203.76 226.777 202.104 228.985 201.96C231.481 201.816 233.329 203.808 233.329 207.048V213H234.481V207.048C234.481 203.4 232.345 200.88 229.561 200.88C227.425 200.88 226.033 201.864 225.097 203.328V201H223.969V213H225.097V205.248Z" fill="#E4E4E4"/>
<g clip-path="url(#clip0_1:85)">
<path fill-rule="evenodd" clip-rule="evenodd" d="M155.82 136.677C155.82 136.985 155.76 137.29 155.642 137.575C155.524 137.86 155.351 138.119 155.133 138.337C154.915 138.555 154.656 138.728 154.371 138.845C154.087 138.963 153.781 139.024 153.473 139.023L126.956 139.023C126.648 139.024 126.343 138.963 126.058 138.845C125.773 138.728 125.514 138.555 125.296 138.337C125.078 138.119 124.905 137.86 124.788 137.575C124.67 137.29 124.609 136.985 124.61 136.677L124.61 124.068L116.376 110.339C115.749 109.294 115.404 108.104 115.376 106.885C115.347 105.667 115.636 104.462 116.214 103.388L140.215 58.8108L164.219 103.392C164.795 104.464 165.083 105.668 165.055 106.885C165.026 108.102 164.682 109.291 164.056 110.336L155.82 124.061L155.82 136.677ZM152.147 121.072L160.036 107.926C160.245 107.577 160.36 107.18 160.37 106.773C160.379 106.366 160.282 105.964 160.089 105.606L140.218 68.6981L120.341 105.612C120.15 105.97 120.054 106.37 120.064 106.775C120.074 107.18 120.189 107.575 120.397 107.923L128.286 121.075L152.15 121.075L152.147 121.072Z" fill="#00C4F0"/>
<path fill-rule="evenodd" clip-rule="evenodd" d="M140.016 69.0728L136.9 100.216C136.245 100.872 135.798 101.707 135.617 102.617C135.436 103.526 135.529 104.468 135.884 105.325C136.239 106.181 136.84 106.913 137.611 107.429C138.381 107.944 139.288 108.219 140.215 108.218C141.142 108.219 142.048 107.944 142.819 107.429C143.59 106.913 144.191 106.181 144.545 105.325C144.9 104.468 144.993 103.526 144.812 102.617C144.631 101.707 144.185 100.872 143.529 100.216L140.414 69.0728L140.215 68.7016L140.016 69.0728Z" fill="#00C4F0"/>
</g>
<defs>
<filter id="filter0_d_1:85" x="0" y="0" width="282" height="282" filterUnits="userSpaceOnUse" color-interpolation-filters="sRGB">
<feFlood flood-opacity="0" result="BackgroundImageFix"/>
<feColorMatrix in="SourceAlpha" type="matrix" values="0 0 0 0 0 0 0 0 0 0 0 0 0 0 0 0 0 0 127 0" result="hardAlpha"/>
<feOffset dy="4"/>
<feGaussianBlur stdDeviation="3"/>
<feComposite in2="hardAlpha" operator="out"/>
<feColorMatrix type="matrix" values="0 0 0 0 0 0 0 0 0 0 0 0 0 0 0 0 0 0 0.47 0"/>
<feBlend mode="normal" in2="BackgroundImageFix" result="effect1_dropShadow_1:85"/>
<feBlend mode="normal" in="SourceGraphic" in2="effect1_dropShadow_1:85" result="shape"/>
</filter>
<clipPath id="clip0_1:85">
<rect width="75" height="75" fill="white" transform="translate(194.066 106.033) rotate(135)"/>
</clipPath>
</defs>
</svg>
