<svg width="282" height="282" viewBox="0 0 282 282" fill="none" xmlns="http://www.w3.org/2000/svg">
<g filter="url(#filter0_d_1:81)">
<rect x="6" y="2" width="270" height="270" rx="29" fill="#2A2A2A"/>
</g>
<path d="M69.8125 90.3906V108.625C69.8125 110.102 69.9766 111.555 70.3047 112.914C71.875 119.43 77.0547 124.023 84.3672 124.023C91.6797 124.023 96.8359 119.43 98.4062 112.914C98.7109 111.555 98.8984 110.102 98.8984 108.625V90.3906H91.8906V108.742C91.8906 109.82 91.75 110.875 91.4688 111.883C90.6016 115.023 88.2812 117.531 84.3438 117.531C80.4531 117.531 78.1328 115.023 77.2422 111.883C76.9609 110.875 76.8203 109.82 76.8203 108.742V90.3906H69.8125ZM101.664 124H110.312L118.562 111.906L126.812 124H135.484L122.617 106.258L134.102 90.4141H125.5L118.562 100.562L111.625 90.4141H103.023L114.508 106.258L101.664 124ZM158.195 83.9688L136.797 130.727H144.18L165.578 83.9688H158.195ZM169.328 90.3906V108.625C169.328 110.102 169.492 111.555 169.82 112.914C171.391 119.43 176.57 124.023 183.883 124.023C191.195 124.023 196.352 119.43 197.922 112.914C198.227 111.555 198.414 110.102 198.414 108.625V90.3906H191.406V108.742C191.406 109.82 191.266 110.875 190.984 111.883C190.117 115.023 187.797 117.531 183.859 117.531C179.969 117.531 177.648 115.023 176.758 111.883C176.477 110.875 176.336 109.82 176.336 108.742V90.3906H169.328ZM204.414 124H211.445V90.3906H204.414V124Z" fill="#00C4F0"/>
<path d="M84.608 196.92L84.632 206.784C84.584 209.808 82.52 211.968 79.28 211.968C75.848 211.968 73.736 209.88 73.736 206.76V196.92H72.656L72.68 206.784C72.68 210.408 74.96 213.12 79.232 213.12C83.432 213.12 85.688 210.288 85.664 206.784L85.688 196.92H84.608ZM93.7033 204.984L87.6793 213H89.0713L94.3993 205.92L99.7273 213H101.119L95.1193 204.984L101.191 196.92H99.7993L94.4233 204.048L89.0713 196.92H87.6553L93.7033 204.984ZM108.999 193.8H107.967L102.303 215.4H103.335L108.999 193.8ZM123.233 196.92L123.257 206.784C123.209 209.808 121.145 211.968 117.905 211.968C114.473 211.968 112.361 209.88 112.361 206.76V196.92H111.281L111.305 206.784C111.305 210.408 113.585 213.12 117.857 213.12C122.057 213.12 124.313 210.288 124.289 206.784L124.313 196.92H123.233ZM129.082 213V196.92H127.954V213H129.082ZM138.657 213H144.705C149.481 213 152.505 209.928 152.505 205.032C152.505 199.992 149.553 196.92 144.705 196.92H138.657V213ZM144.705 197.976C148.833 197.976 151.377 200.664 151.377 205.008C151.377 209.256 148.761 211.944 144.705 211.944H139.809V197.976H144.705ZM161.008 213.168C163.216 213.168 165.136 211.992 166.192 210.12L165.112 209.832C164.152 211.344 162.76 212.088 161.008 212.088C158.344 212.088 156.376 210.096 156.184 207.456H166.96C166.96 207.288 166.984 207.216 166.984 207C166.984 203.568 164.344 200.88 161.008 200.88C157.648 200.88 155.032 203.616 155.032 207.048C155.032 210.456 157.648 213.168 161.008 213.168ZM156.184 206.568C156.376 203.904 158.416 201.912 161.008 201.912C163.6 201.912 165.616 203.856 165.807 206.568H156.184ZM168.953 209.496C169.433 211.68 171.113 213.168 173.441 213.168C175.865 213.168 177.689 211.824 177.689 210.12C177.689 208.8 176.945 207.96 174.809 206.88C174.329 206.64 173.825 206.424 173.105 206.112C171.089 205.2 170.633 204.768 170.633 203.784C170.633 202.656 171.857 201.816 173.489 201.864C175.193 201.912 176.249 202.824 176.417 204.384L177.449 204.24C177.305 202.152 175.697 200.808 173.393 200.856C171.113 200.88 169.481 202.08 169.481 203.736C169.481 205.128 170.201 205.944 172.193 206.808C172.673 207 173.441 207.336 174.113 207.648C175.913 208.536 176.489 209.136 176.489 210.12C176.489 211.224 175.169 212.136 173.441 212.136C171.785 212.136 170.465 210.96 170.081 209.376L168.953 209.496ZM180.089 197.4C180.089 197.832 180.377 198.096 180.785 198.096C181.217 198.096 181.481 197.832 181.481 197.4C181.481 196.968 181.217 196.704 180.785 196.704C180.377 196.704 180.089 196.968 180.089 197.4ZM181.337 213V201H180.185V213H181.337ZM195.272 204C194.312 201.864 192.608 200.88 189.92 200.88C186.56 200.88 184.256 203.544 184.256 207.048C184.256 210.528 186.632 213.168 189.92 213.168C192.512 213.168 194.648 211.824 195.272 209.856V213C195.272 216.096 193.256 217.776 189.8 217.56C187.952 217.44 186.512 216.96 185.12 216.048L184.952 217.2C186.344 218.112 187.856 218.544 189.8 218.664C193.928 218.928 196.424 216.768 196.424 213V201H195.272V204ZM195.272 207.96C195.272 210.072 193.088 211.968 190.472 212.088C187.544 212.208 185.384 210.096 185.384 207.048C185.384 203.928 187.544 201.792 190.52 201.96C192.992 202.08 194.576 203.472 195.272 205.752V207.96ZM201.199 205.248C201.199 203.76 202.879 202.104 205.087 201.96C207.583 201.816 209.431 203.808 209.431 207.048V213H210.583V207.048C210.583 203.4 208.447 200.88 205.663 200.88C203.527 200.88 202.135 201.864 201.199 203.328V201H200.071V213H201.199V205.248Z" fill="#E4E4E4"/>
<defs>
<filter id="filter0_d_1:81" x="0" y="0" width="282" height="282" filterUnits="userSpaceOnUse" color-interpolation-filters="sRGB">
<feFlood flood-opacity="0" result="BackgroundImageFix"/>
<feColorMatrix in="SourceAlpha" type="matrix" values="0 0 0 0 0 0 0 0 0 0 0 0 0 0 0 0 0 0 127 0" result="hardAlpha"/>
<feOffset dy="4"/>
<feGaussianBlur stdDeviation="3"/>
<feComposite in2="hardAlpha" operator="out"/>
<feColorMatrix type="matrix" values="0 0 0 0 0 0 0 0 0 0 0 0 0 0 0 0 0 0 0.47 0"/>
<feBlend mode="normal" in2="BackgroundImageFix" result="effect1_dropShadow_1:81"/>
<feBlend mode="normal" in="SourceGraphic" in2="effect1_dropShadow_1:81" result="shape"/>
</filter>
</defs>
</svg>
