<svg width="282" height="282" viewBox="0 0 282 282" fill="none" xmlns="http://www.w3.org/2000/svg">
<g filter="url(#filter0_d_1:113)">
<g filter="url(#filter1_d_1:113)">
<rect x="6" y="2" width="270" height="270" rx="29" fill="#2A2A2A"/>
</g>
<path d="M90.488 213H91.616V205.632H100.712V204.504H91.616V198.048H101.024V196.92H90.488V213ZM103.754 213H104.906V205.056C104.906 203.784 106.346 202.104 108.434 201.96C109.442 201.888 110.138 202.008 111.074 202.344L111.266 201.144C110.618 200.976 109.586 200.808 108.698 200.88C106.634 201.048 105.434 202.032 104.906 203.352V201H103.754V213ZM118.611 213.168C121.995 213.168 124.779 210.432 124.779 207.048C124.779 203.664 121.995 200.88 118.611 200.88C115.227 200.88 112.443 203.664 112.443 207.048C112.443 210.432 115.227 213.168 118.611 213.168ZM118.611 201.912C121.395 201.912 123.651 204.264 123.651 207.048C123.651 209.904 121.323 212.112 118.611 212.112C115.851 212.112 113.595 209.832 113.595 207.048C113.595 204.168 115.899 201.912 118.611 201.912ZM129.082 205.248C129.082 203.76 130.762 202.104 132.97 201.96C135.466 201.816 137.314 203.808 137.314 207.048V213H138.466V207.048C138.466 203.4 136.33 200.88 133.546 200.88C131.41 200.88 130.018 201.864 129.082 203.328V201H127.954V213H129.082V205.248ZM143.509 198.528V201.288H140.989L140.773 202.368H143.509V209.712C143.509 212.016 144.397 213.12 146.629 213.12C147.397 213.12 148.285 212.976 149.101 212.688L148.933 211.56C148.501 211.752 147.877 211.896 147.085 211.944C145.333 212.04 144.637 211.488 144.637 209.112V202.368H148.669V201.288H144.637V198.528H143.509ZM156.906 213.168C159.114 213.168 161.034 211.992 162.09 210.12L161.01 209.832C160.05 211.344 158.658 212.088 156.906 212.088C154.242 212.088 152.274 210.096 152.082 207.456H162.858C162.858 207.288 162.882 207.216 162.882 207C162.882 203.568 160.242 200.88 156.906 200.88C153.546 200.88 150.93 203.616 150.93 207.048C150.93 210.456 153.546 213.168 156.906 213.168ZM152.082 206.568C152.274 203.904 154.314 201.912 156.906 201.912C159.498 201.912 161.514 203.856 161.706 206.568H152.082ZM167.144 205.248C167.144 203.76 168.824 202.104 171.032 201.96C173.528 201.816 175.376 203.808 175.376 207.048V213H176.528V207.048C176.528 203.4 174.392 200.88 171.608 200.88C169.472 200.88 168.08 201.864 167.144 203.328V201H166.016V213H167.144V205.248ZM179.027 207.048C179.027 210.456 181.499 213.168 184.835 213.168C187.163 213.168 189.323 211.872 190.067 210.048V213H191.195V196.92H190.067V203.76C189.035 201.84 187.331 200.88 184.835 200.88C181.499 200.88 179.027 203.592 179.027 207.048ZM185.195 212.088C182.267 212.088 180.179 209.928 180.179 207.048C180.179 204.6 181.811 201.96 185.195 201.96C187.931 201.96 190.067 204.048 190.067 206.016V208.104C190.067 210.096 187.643 212.088 185.195 212.088Z" fill="#E4E4E4"/>
<path d="M103 70.75C103 70.75 103 61.375 112.375 61.375H168.625C168.625 61.375 178 61.375 178 70.75V98.875C178 98.875 178 108.25 168.625 108.25H149.875C149.875 111.377 150.264 113.72 151.047 115.281H154.562C155.184 115.281 155.78 115.528 156.22 115.968C156.659 116.407 156.906 117.003 156.906 117.625C156.906 118.247 156.659 118.843 156.22 119.282C155.78 119.722 155.184 119.969 154.562 119.969H126.438C125.816 119.969 125.22 119.722 124.78 119.282C124.341 118.843 124.094 118.247 124.094 117.625C124.094 117.003 124.341 116.407 124.78 115.968C125.22 115.528 125.816 115.281 126.438 115.281H129.953C130.736 113.72 131.125 111.377 131.125 108.25H112.375C112.375 108.25 103 108.25 103 98.875V70.75ZM109.553 66.7422C109.038 67.1007 108.627 67.5891 108.363 68.1578C107.963 68.9834 107.733 69.8808 107.688 70.7969V98.875C107.688 100.398 108.053 101.228 108.367 101.697C108.695 102.189 109.164 102.578 109.783 102.887C110.573 103.27 111.429 103.498 112.305 103.558L112.422 103.562H168.625C170.148 103.562 170.978 103.197 171.447 102.883C171.962 102.524 172.373 102.036 172.637 101.467C173.02 100.677 173.248 99.8211 173.308 98.9453L173.312 98.8281V70.75C173.312 69.2266 172.947 68.3969 172.633 67.9281C172.274 67.4131 171.786 67.0022 171.217 66.7375C170.392 66.3379 169.494 66.1084 168.578 66.0625H112.375C110.852 66.0625 110.022 66.4281 109.553 66.7422V66.7422Z" fill="#00C4F0"/>
</g>
<defs>
<filter id="filter0_d_1:113" x="2" y="2" width="278" height="278" filterUnits="userSpaceOnUse" color-interpolation-filters="sRGB">
<feFlood flood-opacity="0" result="BackgroundImageFix"/>
<feColorMatrix in="SourceAlpha" type="matrix" values="0 0 0 0 0 0 0 0 0 0 0 0 0 0 0 0 0 0 127 0" result="hardAlpha"/>
<feOffset dy="4"/>
<feGaussianBlur stdDeviation="2"/>
<feComposite in2="hardAlpha" operator="out"/>
<feColorMatrix type="matrix" values="0 0 0 0 0 0 0 0 0 0 0 0 0 0 0 0 0 0 0.25 0"/>
<feBlend mode="normal" in2="BackgroundImageFix" result="effect1_dropShadow_1:113"/>
<feBlend mode="normal" in="SourceGraphic" in2="effect1_dropShadow_1:113" result="shape"/>
</filter>
<filter id="filter1_d_1:113" x="0" y="0" width="282" height="282" filterUnits="userSpaceOnUse" color-interpolation-filters="sRGB">
<feFlood flood-opacity="0" result="BackgroundImageFix"/>
<feColorMatrix in="SourceAlpha" type="matrix" values="0 0 0 0 0 0 0 0 0 0 0 0 0 0 0 0 0 0 127 0" result="hardAlpha"/>
<feOffset dy="4"/>
<feGaussianBlur stdDeviation="3"/>
<feComposite in2="hardAlpha" operator="out"/>
<feColorMatrix type="matrix" values="0 0 0 0 0 0 0 0 0 0 0 0 0 0 0 0 0 0 0.47 0"/>
<feBlend mode="normal" in2="BackgroundImageFix" result="effect1_dropShadow_1:113"/>
<feBlend mode="normal" in="SourceGraphic" in2="effect1_dropShadow_1:113" result="shape"/>
</filter>
</defs>
</svg>
